<svg width="1024" height="1024" viewBox="0 0 100 100" fill="none" xmlns="http://www.w3.org/2000/svg"><path d="M0 12C0 5.373 5.373 0 12 0h76c6.627 0 12 5.373 12 12v76c0 6.627-5.373 12-12 12H12c-6.627 0-12-5.373-12-12Z" style="fill:#316BFF;stroke:none;stroke-width:1;stroke-dasharray:none;stroke-opacity:1"/><path d="M54.792 36.472h1.963v-9.968H16.5v9.968h12.764Zm-25.53 37.062V59.831h25.53v-9.967H16.5V83.5h40.582v-9.966z" fill="#FFFFFF" style="stroke-width:.956016" transform="translate(.746 .746)scale(.98507)"/><path d="M69.932 23.917v7.372q0 1.51.978 2.62 1.018 1.11 2.404 1.11 1.425 0 2.403-1.11 1.02-1.11 1.02-2.62v-7.372q0-1.555-1.02-2.621-.978-1.11-2.403-1.11-1.386 0-2.404 1.11-.978 1.11-.978 2.62m6.804 11.104q-.407 3.686-3.422 3.686h-3.382q-2.771 0-4.808-2.176-1.996-2.176-1.996-5.241v-7.372q0-3.02 1.996-5.196 2.037-2.221 4.808-2.221h6.804q2.77 0 4.768 2.22 1.996 2.177 1.996 5.197V36.84q0 5.33-3.504 9.149-3.464 3.82-8.353 3.82H66.55V46.12h3.382q2.811 0 4.807-2.176 1.997-2.22 1.997-5.24z" style="fill:#FFFFFF;stroke-width:.956016" transform="translate(.746 .746)scale(.98507)"/></svg>