<svg width="215" height="65" viewBox="0 0 215.75 65.927" fill="none" xmlns="http://www.w3.org/2000/svg"><path d="M65.71 32.946h1.677V24H33v8.946h10.903zM43.903 66.215V53.914H65.71v-8.946H33V75.16h34.667v-8.946z" style="fill:#FFFFFF" transform="matrix(1.15318 0 0 1.09743 -38.055 -16.558)" fill="#fff"/><path d="M151.922 32.797h1.678v-8.946h-34.387v8.946h10.903zm-21.806 33.269v-12.3h21.806v-8.947h-32.709v30.193h34.666v-8.946z" style="fill:#FFFFFF" transform="matrix(1.15318 0 0 1.09743 -39.633 -16.394)" fill="#fff"/><path d="M48.92 19.578V9.781h39.978v9.797H74.004v46.349H63.847V19.578Zm97.842 46.349V9.78h19.971q5.75 0 9.799 2.26 4.082 2.262 6.226 6.407 2.177 4.107 2.177 9.684t-2.177 9.609-6.328 6.18q-4.117 2.11-9.97 2.11h-13.37v-9.534h11.636q3.096 0 5.103-.942 2.041-.942 3.028-2.788 1.02-1.847 1.02-4.635 0-2.826-1.02-4.71-.987-1.922-3.028-2.902-2.041-1.017-5.137-1.017h-7.247v46.424Zm28.137 0-12.35-25.548h11.567l12.622 25.548z" style="fill:#FFFFFF"/><path d="M69.932 23.917v7.372q0 1.51.978 2.62 1.018 1.11 2.404 1.11 1.425 0 2.403-1.11 1.02-1.11 1.02-2.62v-7.372q0-1.555-1.02-2.621-.978-1.11-2.403-1.11-1.386 0-2.404 1.11-.978 1.11-.978 2.62m6.804 11.104q-.407 3.686-3.422 3.686h-3.382q-2.771 0-4.808-2.176-1.996-2.176-1.996-5.241v-7.372q0-3.02 1.996-5.196 2.037-2.221 4.808-2.221h6.804q2.77 0 4.768 2.22 1.996 2.177 1.996 5.197V36.84q0 5.33-3.504 9.149-3.464 3.82-8.353 3.82H66.55V46.12h3.382q2.811 0 4.807-2.176 1.997-2.22 1.997-5.24z" style="fill:#FFFFFF" transform="translate(133.496 -16.253)scale(.98509)"/></svg>